<svg xmlns="http://www.w3.org/2000/svg" version="1.1" xmlns:xlink="http://www.w3.org/1999/xlink" xmlns:svgjs="http://svgjs.dev/svgjs" viewBox="0 0 1422 800" width="1422" height="800"><g transform="scale(1) rotate(0) translate(0 0) skewX(0) skewY(0)" transform-origin="711 400"><rect width="2844" height="1600" x="-711" y="-400" fill="url(#rrreplicate-pattern3)"></rect><rect width="2844" height="1600" x="-711" y="-400" fill="url(#rrreplicate-pattern4)"></rect></g><defs><pattern id="rrreplicate-pattern3" width="256" height="256" patternUnits="userSpaceOnUse" patternTransform="rotate(115)" stroke-opacity="0.64" stroke-width="3.4" fill="none" stroke="#9013fe">
      <line x1="25.6" y1="0" x2="25.6" y2="256"></line><line x1="76.80000000000001" y1="0" x2="76.80000000000001" y2="256"></line><line x1="128" y1="0" x2="128" y2="256"></line><line x1="179.20000000000002" y1="0" x2="179.20000000000002" y2="256"></line><line x1="230.4" y1="0" x2="230.4" y2="256"></line>
      </pattern><pattern id="rrreplicate-pattern4" width="256" height="256" patternUnits="userSpaceOnUse" patternTransform="rotate(115)" stroke-opacity="0.69" stroke-width="3" fill="none" stroke="#1effcd">
      <line x1="16" y1="0" x2="16" y2="256"></line><line x1="48" y1="0" x2="48" y2="256"></line><line x1="80" y1="0" x2="80" y2="256"></line><line x1="112" y1="0" x2="112" y2="256"></line><line x1="144" y1="0" x2="144" y2="256"></line><line x1="176" y1="0" x2="176" y2="256"></line><line x1="208" y1="0" x2="208" y2="256"></line><line x1="240" y1="0" x2="240" y2="256"></line>
      </pattern></defs></svg>