<svg xmlns="http://www.w3.org/2000/svg" version="1.1" xmlns:xlink="http://www.w3.org/1999/xlink" xmlns:svgjs="http://svgjs.dev/svgjs" viewBox="0 0 800 800"><defs><linearGradient x1="50%" y1="0%" x2="50%" y2="100%" id="ffflurry-grad" gradientTransform="rotate(270)"><stop stop-color="hsl(238, 0%, 100%)" stop-opacity="1" offset="0%"></stop><stop stop-color="hsl(162, 100%, 58%)" stop-opacity="1" offset="45%"></stop><stop stop-color="hsl(270, 73%, 53%)" stop-opacity="1" offset="100%"></stop></linearGradient></defs><rect width="100%" height="100%" fill="hsl(238, 0%, 100%)"></rect><g fill="url(#ffflurry-grad)"><rect width="148" height="3" x="67" y="35.5" rx="1.5" transform="rotate(45, 141, 37)" opacity="0.12"></rect><rect width="176" height="3" x="140" y="222.5" rx="1.5" transform="rotate(45, 228, 224)" opacity="0.37"></rect><rect width="486" height="3" x="422" y="457.5" rx="1.5" transform="rotate(45, 665, 459)" opacity="0.33"></rect><rect width="277" height="3" x="69.5" y="318.5" rx="1.5" transform="rotate(45, 208, 320)" opacity="0.69"></rect><rect width="211" height="3" x="56.5" y="762.5" rx="1.5" transform="rotate(45, 162, 764)" opacity="0.18"></rect><rect width="310" height="3" x="-115" y="543.5" rx="1.5" transform="rotate(45, 40, 545)" opacity="0.49"></rect><rect width="95" height="3" x="297.5" y="47.5" rx="1.5" transform="rotate(45, 345, 49)" opacity="0.50"></rect><rect width="210" height="3" x="291" y="159.5" rx="1.5" transform="rotate(45, 396, 161)" opacity="0.46"></rect><rect width="109" height="3" x="340.5" y="73.5" rx="1.5" transform="rotate(45, 395, 75)" opacity="0.45"></rect><rect width="345" height="3" x="508.5" y="644.5" rx="1.5" transform="rotate(45, 681, 646)" opacity="0.71"></rect><rect width="302" height="3" x="487" y="37.5" rx="1.5" transform="rotate(45, 638, 39)" opacity="0.18"></rect><rect width="544" height="3" x="488" y="466.5" rx="1.5" transform="rotate(45, 760, 468)" opacity="0.89"></rect><rect width="506" height="3" x="61" y="703.5" rx="1.5" transform="rotate(45, 314, 705)" opacity="0.88"></rect><rect width="283" height="3" x="587.5" y="547.5" rx="1.5" transform="rotate(45, 729, 549)" opacity="0.84"></rect><rect width="627" height="3" x="282.5" y="112.5" rx="1.5" transform="rotate(45, 596, 114)" opacity="0.60"></rect><rect width="501" height="3" x="277.5" y="53.5" rx="1.5" transform="rotate(45, 528, 55)" opacity="0.80"></rect><rect width="478" height="3" x="292" y="193.5" rx="1.5" transform="rotate(45, 531, 195)" opacity="0.39"></rect><rect width="128" height="3" x="506" y="321.5" rx="1.5" transform="rotate(45, 570, 323)" opacity="0.67"></rect><rect width="388" height="3" x="-153" y="658.5" rx="1.5" transform="rotate(45, 41, 660)" opacity="0.23"></rect><rect width="406" height="3" x="250" y="54.5" rx="1.5" transform="rotate(45, 453, 56)" opacity="0.68"></rect><rect width="392" height="3" x="223" y="708.5" rx="1.5" transform="rotate(45, 419, 710)" opacity="0.73"></rect><rect width="283" height="3" x="594.5" y="113.5" rx="1.5" transform="rotate(45, 736, 115)" opacity="0.60"></rect><rect width="210" height="3" x="657" y="268.5" rx="1.5" transform="rotate(45, 762, 270)" opacity="0.10"></rect><rect width="182" height="3" x="423" y="756.5" rx="1.5" transform="rotate(45, 514, 758)" opacity="0.52"></rect><rect width="364" height="3" x="284" y="181.5" rx="1.5" transform="rotate(45, 466, 183)" opacity="0.10"></rect><rect width="349" height="3" x="77.5" y="651.5" rx="1.5" transform="rotate(45, 252, 653)" opacity="0.84"></rect><rect width="339" height="3" x="-137.5" y="348.5" rx="1.5" transform="rotate(45, 32, 350)" opacity="0.35"></rect><rect width="56" height="3" x="57" y="472.5" rx="1.5" transform="rotate(45, 85, 474)" opacity="0.26"></rect><rect width="180" height="3" x="137" y="745.5" rx="1.5" transform="rotate(45, 227, 747)" opacity="0.25"></rect><rect width="672" height="3" x="322" y="745.5" rx="1.5" transform="rotate(45, 658, 747)" opacity="0.15"></rect><rect width="508" height="3" x="-204" y="757.5" rx="1.5" transform="rotate(45, 50, 759)" opacity="0.74"></rect><rect width="440" height="3" x="324" y="425.5" rx="1.5" transform="rotate(45, 544, 427)" opacity="0.88"></rect><rect width="39" height="3" x="160.5" y="631.5" rx="1.5" transform="rotate(45, 180, 633)" opacity="0.32"></rect><rect width="510" height="3" x="359" y="590.5" rx="1.5" transform="rotate(45, 614, 592)" opacity="0.20"></rect><rect width="166" height="3" x="420" y="658.5" rx="1.5" transform="rotate(45, 503, 660)" opacity="0.20"></rect><rect width="167" height="3" x="666.5" y="698.5" rx="1.5" transform="rotate(45, 750, 700)" opacity="0.52"></rect><rect width="263" height="3" x="84.5" y="417.5" rx="1.5" transform="rotate(45, 216, 419)" opacity="0.27"></rect><rect width="413" height="3" x="208.5" y="626.5" rx="1.5" transform="rotate(45, 415, 628)" opacity="0.12"></rect><rect width="426" height="3" x="250" y="363.5" rx="1.5" transform="rotate(45, 463, 365)" opacity="0.21"></rect><rect width="111" height="3" x="536.5" y="253.5" rx="1.5" transform="rotate(45, 592, 255)" opacity="0.39"></rect><rect width="288" height="3" x="622" y="617.5" rx="1.5" transform="rotate(45, 766, 619)" opacity="0.24"></rect><rect width="470" height="3" x="516" y="41.5" rx="1.5" transform="rotate(45, 751, 43)" opacity="0.93"></rect><rect width="397" height="3" x="-171.5" y="421.5" rx="1.5" transform="rotate(45, 27, 423)" opacity="0.59"></rect><rect width="279" height="3" x="184.5" y="598.5" rx="1.5" transform="rotate(45, 324, 600)" opacity="0.79"></rect><rect width="63" height="3" x="92.5" y="706.5" rx="1.5" transform="rotate(45, 124, 708)" opacity="0.45"></rect><rect width="355" height="3" x="-123.5" y="218.5" rx="1.5" transform="rotate(45, 54, 220)" opacity="0.18"></rect><rect width="186" height="3" x="355" y="769.5" rx="1.5" transform="rotate(45, 448, 771)" opacity="0.23"></rect><rect width="178" height="3" x="198" y="773.5" rx="1.5" transform="rotate(45, 287, 775)" opacity="0.92"></rect><rect width="124" height="3" x="-21" y="55.5" rx="1.5" transform="rotate(45, 41, 57)" opacity="0.69"></rect><rect width="88" height="3" x="363" y="269.5" rx="1.5" transform="rotate(45, 407, 271)" opacity="0.26"></rect><rect width="104" height="3" x="701" y="373.5" rx="1.5" transform="rotate(45, 753, 375)" opacity="0.26"></rect><rect width="59" height="3" x="82.5" y="390.5" rx="1.5" transform="rotate(45, 112, 392)" opacity="0.18"></rect><rect width="247" height="3" x="241.5" y="760.5" rx="1.5" transform="rotate(45, 365, 762)" opacity="0.56"></rect><rect width="325" height="3" x="462.5" y="517.5" rx="1.5" transform="rotate(45, 625, 519)" opacity="0.45"></rect><rect width="620" height="3" x="58" y="441.5" rx="1.5" transform="rotate(45, 368, 443)" opacity="0.18"></rect><rect width="409" height="3" x="-53.5" y="123.5" rx="1.5" transform="rotate(45, 151, 125)" opacity="0.44"></rect><rect width="122" height="3" x="628" y="297.5" rx="1.5" transform="rotate(45, 689, 299)" opacity="0.29"></rect><rect width="79" height="3" x="220.5" y="40.5" rx="1.5" transform="rotate(45, 260, 42)" opacity="0.08"></rect><rect width="517" height="3" x="200.5" y="529.5" rx="1.5" transform="rotate(45, 459, 531)" opacity="0.78"></rect><rect width="313" height="3" x="164.5" y="337.5" rx="1.5" transform="rotate(45, 321, 339)" opacity="0.43"></rect><rect width="217" height="3" x="0.5" y="590.5" rx="1.5" transform="rotate(45, 109, 592)" opacity="0.46"></rect><rect width="121" height="3" x="689.5" y="766.5" rx="1.5" transform="rotate(45, 750, 768)" opacity="0.42"></rect><rect width="154" height="3" x="241" y="514.5" rx="1.5" transform="rotate(45, 318, 516)" opacity="0.70"></rect><rect width="210" height="3" x="90" y="520.5" rx="1.5" transform="rotate(45, 195, 522)" opacity="0.38"></rect><rect width="391" height="3" x="-168.5" y="277.5" rx="1.5" transform="rotate(45, 27, 279)" opacity="0.40"></rect><rect width="307" height="3" x="427.5" y="749.5" rx="1.5" transform="rotate(45, 581, 751)" opacity="0.59"></rect><rect width="324" height="3" x="469" y="200.5" rx="1.5" transform="rotate(45, 631, 202)" opacity="0.95"></rect><rect width="145" height="3" x="249.5" y="180.5" rx="1.5" transform="rotate(45, 322, 182)" opacity="0.31"></rect><rect width="209" height="3" x="-47.5" y="150.5" rx="1.5" transform="rotate(45, 57, 152)" opacity="0.62"></rect><rect width="316" height="3" x="494" y="376.5" rx="1.5" transform="rotate(45, 652, 378)" opacity="0.65"></rect><rect width="564" height="3" x="263" y="525.5" rx="1.5" transform="rotate(45, 545, 527)" opacity="0.38"></rect><rect width="62" height="3" x="217" y="126.5" rx="1.5" transform="rotate(45, 248, 128)" opacity="0.94"></rect><rect width="347" height="3" x="-80.5" y="313.5" rx="1.5" transform="rotate(45, 93, 315)" opacity="0.97"></rect><rect width="105" height="3" x="82.5" y="249.5" rx="1.5" transform="rotate(45, 135, 251)" opacity="0.34"></rect><rect width="514" height="3" x="326" y="658.5" rx="1.5" transform="rotate(45, 583, 660)" opacity="0.34"></rect><rect width="255" height="3" x="615.5" y="194.5" rx="1.5" transform="rotate(45, 743, 196)" opacity="0.43"></rect><rect width="237" height="3" x="551.5" y="149.5" rx="1.5" transform="rotate(45, 670, 151)" opacity="0.61"></rect></g></svg>