<svg id="wave" style="transform:rotate(0deg); transition: 0.3s" viewBox="0 0 1440 230" version="1.1" xmlns="http://www.w3.org/2000/svg"><defs><linearGradient id="sw-gradient-0" x1="0" x2="0" y1="1" y2="0"><stop stop-color="rgba(62, 129.572, 243, 1)" offset="0%"></stop><stop stop-color="rgba(11, 255, 193.01, 1)" offset="100%"></stop></linearGradient></defs><path style="transform:translate(0, 0px); opacity:1" fill="url(#sw-gradient-0)" d="M0,69L21.8,65.2C43.6,61,87,54,131,57.5C174.5,61,218,77,262,99.7C305.5,123,349,153,393,141.8C436.4,130,480,77,524,49.8C567.3,23,611,23,655,19.2C698.2,15,742,8,785,19.2C829.1,31,873,61,916,69C960,77,1004,61,1047,49.8C1090.9,38,1135,31,1178,49.8C1221.8,69,1265,115,1309,145.7C1352.7,176,1396,192,1440,176.3C1483.6,161,1527,115,1571,92C1614.5,69,1658,69,1702,88.2C1745.5,107,1789,146,1833,145.7C1876.4,146,1920,107,1964,107.3C2007.3,107,2051,146,2095,168.7C2138.2,192,2182,199,2225,184C2269.1,169,2313,130,2356,118.8C2400,107,2444,123,2487,126.5C2530.9,130,2575,123,2618,99.7C2661.8,77,2705,38,2749,49.8C2792.7,61,2836,123,2880,122.7C2923.6,123,2967,61,3011,49.8C3054.5,38,3098,77,3120,95.8L3141.8,115L3141.8,230L3120,230C3098.2,230,3055,230,3011,230C2967.3,230,2924,230,2880,230C2836.4,230,2793,230,2749,230C2705.5,230,2662,230,2618,230C2574.5,230,2531,230,2487,230C2443.6,230,2400,230,2356,230C2312.7,230,2269,230,2225,230C2181.8,230,2138,230,2095,230C2050.9,230,2007,230,1964,230C1920,230,1876,230,1833,230C1789.1,230,1745,230,1702,230C1658.2,230,1615,230,1571,230C1527.3,230,1484,230,1440,230C1396.4,230,1353,230,1309,230C1265.5,230,1222,230,1178,230C1134.5,230,1091,230,1047,230C1003.6,230,960,230,916,230C872.7,230,829,230,785,230C741.8,230,698,230,655,230C610.9,230,567,230,524,230C480,230,436,230,393,230C349.1,230,305,230,262,230C218.2,230,175,230,131,230C87.3,230,44,230,22,230L0,230Z"></path></svg>